<svg xmlns="http://www.w3.org/2000/svg" viewBox="0 0 6.01 11.9"><defs><style>.cls-1{fill:#231f20;}</style></defs><g id="Layer_2" data-name="Layer 2"><g id="Layer_1-2" data-name="Layer 1"><path class="cls-1" d="M5.27,9.87a2.08,2.08,0,0,1-2.65.56C.92,9.22,1.49,6.74,2.16,5.71a2.06,2.06,0,0,1,1.2-.59,2.86,2.86,0,0,0,1.79-1.2,2.72,2.72,0,0,0,.43-1.48C5.69-.5,2.09.06.08,0V6.34A4.3,4.3,0,0,1,.56,5.19a4,4,0,0,1,1-1.07l-.06-3h1C4,1.08,4.63,2,4,3.32c-.68.76-1,.24-2.24,1A4.37,4.37,0,0,0,0,7.84c-.15,3.73,3.84,5.33,6,2.9Z"/></g></g></svg>