<svg xmlns="http://www.w3.org/2000/svg" viewBox="0 0 34.71 11.9"><defs><style>.cls-1{fill:#fff}</style></defs><g id="Layer_2" data-name="Layer 2"><g id="Layer_1-2" data-name="Layer 1"><path d="M5.27,9.87a2.08,2.08,0,0,1-2.65.56C.92,9.22,1.49,6.74,2.16,5.71a2.06,2.06,0,0,1,1.2-.59,2.86,2.86,0,0,0,1.79-1.2,2.72,2.72,0,0,0,.43-1.48C5.69-.5,2.09.06.08,0V6.34A4.3,4.3,0,0,1,.56,5.19a4,4,0,0,1,1-1.07l-.06-3h1C4,1.08,4.63,2,4,3.32c-.68.76-1,.24-2.24,1A4.37,4.37,0,0,0,0,7.84c-.15,3.73,3.84,5.33,6,2.9Z" class="cls-1"/><path d="M6.08,9a1.41,1.41,0,1,1,2.8,0,1.41,1.41,0,1,1-2.8,0ZM8.17,9c0-.59-.26-1-.69-1s-.69.39-.69,1,.26,1,.69,1S8.17,9.57,8.17,9Z" class="cls-1"/><path d="M9.39,9a1.38,1.38,0,0,1,1.24-1.54,1.09,1.09,0,0,1,.78.32l0-.47V6.22h.69v4.23H11.5l-.05-.31h0a1.27,1.27,0,0,1-.84.39C9.86,10.53,9.39,10,9.39,9Zm2,.64V8.25a.86.86,0,0,0-.6-.24c-.37,0-.68.35-.68,1s.24,1,.67,1A.76.76,0,0,0,11.38,9.62Z" class="cls-1"/><path d="M12.76,9a1.43,1.43,0,0,1,1.35-1.54c.8,0,1.22.57,1.22,1.4a1.42,1.42,0,0,1,0,.33H13.43a.84.84,0,0,0,.87.82A1.27,1.27,0,0,0,15,9.78l.24.43a1.83,1.83,0,0,1-1,.32A1.42,1.42,0,0,1,12.76,9Zm2-.28c0-.45-.2-.73-.6-.73a.74.74,0,0,0-.71.73Z" class="cls-1"/><path d="M15.7,10.12,16,9.68a1.33,1.33,0,0,0,.81.33c.33,0,.48-.15.48-.36s-.32-.35-.64-.47-.82-.37-.82-.86.41-.88,1.07-.88a1.57,1.57,0,0,1,1,.35l-.32.42A1.1,1.1,0,0,0,16.93,8c-.29,0-.43.14-.43.32s.3.33.61.44.85.34.85.89-.4.92-1.15.92A1.89,1.89,0,0,1,15.7,10.12Z" class="cls-1"/><path d="M6.45,2.4H7l.05.53h0a1,1,0,0,1,.83-.6.8.8,0,0,1,.34.06L8.14,3a.94.94,0,0,0-.3-.05c-.24,0-.52.16-.7.61v1.8H6.45Z" class="cls-1"/><path d="M8.61,1.5A.43.43,0,1,1,9,1.89.4.4,0,0,1,8.61,1.5Zm.08.9h.69V5.35H8.69Z" class="cls-1"/><path d="M10.26,2.4h.57l.05.4h0a1.38,1.38,0,0,1,1-.47c.64,0,.91.43.91,1.17V5.35h-.69V3.59c0-.48-.14-.67-.46-.67a.92.92,0,0,0-.67.37V5.35h-.69Z" class="cls-1"/><path d="M13.43,3.88A1.46,1.46,0,0,1,14.9,2.33a1.27,1.27,0,0,1,.86.33l-.33.45a.72.72,0,0,0-.49-.21c-.48,0-.8.39-.8,1s.32,1,.78,1a1,1,0,0,0,.61-.26l.28.46a1.49,1.49,0,0,1-1,.36A1.39,1.39,0,0,1,13.43,3.88Z" class="cls-1"/><path d="M16.05,3.88a1.44,1.44,0,0,1,1.36-1.55c.8,0,1.22.58,1.22,1.4a2.68,2.68,0,0,1,0,.34H16.73a.83.83,0,0,0,.87.82,1.22,1.22,0,0,0,.68-.22l.23.43a1.81,1.81,0,0,1-1,.32A1.42,1.42,0,0,1,16.05,3.88Zm2-.28c0-.46-.2-.73-.6-.73a.73.73,0,0,0-.71.73Z" class="cls-1"/><path d="M20.13,8.32C21.9,6.6,23,5.49,23,4.52A1,1,0,0,0,22,3.42a1.73,1.73,0,0,0-1.24.7l-.64-.63a2.57,2.57,0,0,1,2-1,1.86,1.86,0,0,1,2,2c0,1.13-1.05,2.29-2.32,3.61.34,0,.76-.06,1.07-.06h1.56V9h-4.3Z" class="cls-1"/><path d="M27.87,5c0-.37,0-.95.05-1.32h0c-.16.33-.34.64-.52,1L26.2,6.46h3.54v.89H25.06V6.57l2.52-3.94H29V9H27.87Z" class="cls-1"/><path d="M33.46,3.6h-3v-1h4.26v.7C33.22,5.18,33,6.51,32.86,9H31.69A8.91,8.91,0,0,1,33.46,3.6Z" class="cls-1"/></g></g></svg>